# Blender 5.0.0
# www.blender.org
mtllib ball.mtl
o Cube
v 0.746363 0.746363 -0.746363
v 0.746363 -0.746363 -0.746363
v 0.746363 0.746363 0.746363
v 0.746363 -0.746363 0.746363
v -0.746363 0.746363 -0.746363
v -0.746363 -0.746363 -0.746363
v -0.746363 0.746363 0.746363
v -0.746363 -0.746363 0.746363
v -0.815936 -0.815936 -0.582811
v -0.874816 -0.874816 -0.374921
v -0.909475 -0.909475 -0.129925
v -0.909475 -0.909475 0.129925
v -0.874816 -0.874816 0.374921
v -0.815936 -0.815936 0.582811
v 0.582811 -0.815936 -0.815936
v 0.374921 -0.874816 -0.874816
v 0.129925 -0.909475 -0.909475
v -0.129925 -0.909475 -0.909475
v -0.374921 -0.874816 -0.874816
v -0.582811 -0.815936 -0.815936
v 0.815936 0.582811 -0.815936
v 0.874816 0.374921 -0.874816
v 0.909475 0.129925 -0.909475
v 0.909475 -0.129925 -0.909475
v 0.874816 -0.374921 -0.874816
v 0.815936 -0.582811 -0.815936
v -0.815936 -0.582811 0.815936
v -0.874816 -0.374921 0.874816
v -0.909475 -0.129925 0.909475
v -0.909475 0.129925 0.909475
v -0.874816 0.374921 0.874816
v -0.815936 0.582811 0.815936
v 0.815936 0.582811 0.815936
v 0.874816 0.374921 0.874816
v 0.909475 0.129925 0.909475
v 0.909475 -0.129925 0.909475
v 0.874816 -0.374921 0.874816
v 0.815936 -0.582811 0.815936
v -0.815936 0.582811 -0.815936
v -0.874816 0.374921 -0.874816
v -0.909475 0.129925 -0.909475
v -0.909475 -0.129925 -0.909475
v -0.874816 -0.374921 -0.874816
v -0.815936 -0.582811 -0.815936
v 0.582811 0.815936 0.815936
v 0.374921 0.874816 0.874816
v 0.129925 0.909475 0.909475
v -0.129925 0.909475 0.909475
v -0.374921 0.874816 0.874816
v -0.582811 0.815936 0.815936
v 0.815936 0.815936 -0.582811
v 0.874816 0.874816 -0.374921
v 0.909475 0.909475 -0.129925
v 0.909475 0.909475 0.129925
v 0.874816 0.874816 0.374921
v 0.815936 0.815936 0.582811
v -0.582811 -0.815936 0.815936
v -0.374921 -0.874816 0.874816
v -0.129925 -0.909475 0.909475
v 0.129925 -0.909475 0.909475
v 0.374921 -0.874816 0.874816
v 0.582811 -0.815936 0.815936
v -0.815936 0.815936 0.582811
v -0.874816 0.874816 0.374921
v -0.909475 0.909475 0.129925
v -0.909475 0.909475 -0.129925
v -0.874816 0.874816 -0.374921
v -0.815936 0.815936 -0.582811
v -0.582811 0.815936 -0.815936
v -0.374921 0.874816 -0.874816
v -0.129925 0.909475 -0.909475
v 0.129925 0.909475 -0.909475
v 0.374921 0.874816 -0.874816
v 0.582811 0.815936 -0.815936
v 0.815936 -0.815936 0.582811
v 0.874816 -0.874816 0.374921
v 0.909475 -0.909475 0.129925
v 0.909475 -0.909475 -0.129925
v 0.874816 -0.874816 -0.374921
v 0.815936 -0.815936 -0.582811
v -0.649625 -0.649625 -0.909475
v -0.425689 -0.709482 -0.993275
v -0.149273 -0.746363 -1.044908
v 0.149273 -0.746363 -1.044908
v 0.425689 -0.709482 -0.993275
v 0.649625 -0.649625 -0.909475
v -0.709482 -0.425689 -0.993275
v -0.473799 -0.473799 -1.105532
v -0.168300 -0.504900 -1.178101
v 0.168300 -0.504900 -1.178101
v 0.473799 -0.473799 -1.105532
v 0.709482 -0.425689 -0.993275
v -0.746363 -0.149273 -1.044908
v -0.504900 -0.168300 -1.178101
v -0.181020 -0.181020 -1.267137
v 0.181020 -0.181020 -1.267137
v 0.504900 -0.168300 -1.178101
v 0.746363 -0.149273 -1.044908
v -0.746363 0.149273 -1.044908
v -0.504900 0.168300 -1.178101
v -0.181020 0.181020 -1.267137
v 0.181020 0.181020 -1.267137
v 0.504900 0.168300 -1.178101
v 0.746363 0.149273 -1.044908
v -0.709482 0.425689 -0.993275
v -0.473799 0.473799 -1.105532
v -0.168300 0.504900 -1.178101
v 0.168300 0.504900 -1.178101
v 0.473799 0.473799 -1.105532
v 0.709482 0.425689 -0.993275
v -0.649625 0.649625 -0.909475
v -0.425689 0.709482 -0.993275
v -0.149273 0.746363 -1.044908
v 0.149273 0.746363 -1.044908
v 0.425689 0.709482 -0.993275
v 0.649625 0.649625 -0.909475
v 0.909475 -0.649625 -0.649625
v 0.993275 -0.709482 -0.425689
v 1.044908 -0.746363 -0.149273
v 1.044908 -0.746363 0.149273
v 0.993275 -0.709482 0.425689
v 0.909475 -0.649625 0.649625
v 0.993275 -0.425689 -0.709482
v 1.105532 -0.473799 -0.473799
v 1.178101 -0.504900 -0.168300
v 1.178101 -0.504900 0.168300
v 1.105532 -0.473799 0.473799
v 0.993275 -0.425689 0.709482
v 1.044908 -0.149273 -0.746363
v 1.178101 -0.168300 -0.504900
v 1.267137 -0.181020 -0.181020
v 1.267137 -0.181020 0.181020
v 1.178101 -0.168300 0.504900
v 1.044908 -0.149273 0.746363
v 1.044908 0.149273 -0.746363
v 1.178101 0.168300 -0.504900
v 1.267137 0.181020 -0.181020
v 1.267137 0.181020 0.181020
v 1.178101 0.168300 0.504900
v 1.044908 0.149273 0.746363
v 0.993275 0.425689 -0.709482
v 1.105532 0.473799 -0.473799
v 1.178101 0.504900 -0.168300
v 1.178101 0.504900 0.168300
v 1.105532 0.473799 0.473799
v 0.993275 0.425689 0.709482
v 0.909475 0.649625 -0.649625
v 0.993275 0.709482 -0.425689
v 1.044908 0.746363 -0.149273
v 1.044908 0.746363 0.149273
v 0.993275 0.709482 0.425689
v 0.909475 0.649625 0.649625
v -0.649625 -0.909475 -0.649625
v -0.709482 -0.993275 -0.425689
v -0.746363 -1.044908 -0.149273
v -0.746363 -1.044908 0.149273
v -0.709482 -0.993275 0.425689
v -0.649625 -0.909475 0.649625
v -0.425689 -0.993275 -0.709482
v -0.473799 -1.105532 -0.473799
v -0.504900 -1.178101 -0.168300
v -0.504900 -1.178101 0.168300
v -0.473799 -1.105532 0.473799
v -0.425689 -0.993275 0.709482
v -0.149273 -1.044908 -0.746363
v -0.168300 -1.178101 -0.504900
v -0.181020 -1.267137 -0.181020
v -0.181020 -1.267137 0.181020
v -0.168300 -1.178101 0.504900
v -0.149273 -1.044908 0.746363
v 0.149273 -1.044908 -0.746363
v 0.168300 -1.178101 -0.504900
v 0.181020 -1.267137 -0.181020
v 0.181020 -1.267137 0.181020
v 0.168300 -1.178101 0.504900
v 0.149273 -1.044908 0.746363
v 0.425689 -0.993275 -0.709482
v 0.473799 -1.105532 -0.473799
v 0.504900 -1.178101 -0.168300
v 0.504900 -1.178101 0.168300
v 0.473799 -1.105532 0.473799
v 0.425689 -0.993275 0.709482
v 0.649625 -0.909475 -0.649625
v 0.709482 -0.993275 -0.425689
v 0.746363 -1.044908 -0.149273
v 0.746363 -1.044908 0.149273
v 0.709482 -0.993275 0.425689
v 0.649625 -0.909475 0.649625
v -0.909475 -0.649625 0.649625
v -0.993275 -0.709482 0.425689
v -1.044908 -0.746363 0.149273
v -1.044908 -0.746363 -0.149273
v -0.993275 -0.709482 -0.425689
v -0.909475 -0.649625 -0.649625
v -0.993275 -0.425689 0.709482
v -1.105532 -0.473799 0.473799
v -1.178101 -0.504900 0.168300
v -1.178101 -0.504900 -0.168300
v -1.105532 -0.473799 -0.473799
v -0.993275 -0.425689 -0.709482
v -1.044908 -0.149273 0.746363
v -1.178101 -0.168300 0.504900
v -1.267137 -0.181020 0.181020
v -1.267137 -0.181020 -0.181020
v -1.178101 -0.168300 -0.504900
v -1.044908 -0.149273 -0.746363
v -1.044908 0.149273 0.746363
v -1.178101 0.168300 0.504900
v -1.267137 0.181020 0.181020
v -1.267137 0.181020 -0.181020
v -1.178101 0.168300 -0.504900
v -1.044908 0.149273 -0.746363
v -0.993275 0.425689 0.709482
v -1.105532 0.473799 0.473799
v -1.178101 0.504900 0.168300
v -1.178101 0.504900 -0.168300
v -1.105532 0.473799 -0.473799
v -0.993275 0.425689 -0.709482
v -0.909475 0.649625 0.649625
v -0.993275 0.709482 0.425689
v -1.044908 0.746363 0.149273
v -1.044908 0.746363 -0.149273
v -0.993275 0.709482 -0.425689
v -0.909475 0.649625 -0.649625
v 0.649625 -0.649625 0.909475
v 0.425689 -0.709482 0.993275
v 0.149273 -0.746363 1.044908
v -0.149273 -0.746363 1.044908
v -0.425689 -0.709482 0.993275
v -0.649625 -0.649625 0.909475
v 0.709482 -0.425689 0.993275
v 0.473799 -0.473799 1.105532
v 0.168300 -0.504900 1.178101
v -0.168300 -0.504900 1.178101
v -0.473799 -0.473799 1.105532
v -0.709482 -0.425689 0.993275
v 0.746363 -0.149273 1.044908
v 0.504900 -0.168300 1.178101
v 0.181020 -0.181020 1.267137
v -0.181020 -0.181020 1.267137
v -0.504900 -0.168300 1.178101
v -0.746363 -0.149273 1.044908
v 0.746363 0.149273 1.044908
v 0.504900 0.168300 1.178101
v 0.181020 0.181020 1.267137
v -0.181020 0.181020 1.267137
v -0.504900 0.168300 1.178101
v -0.746363 0.149273 1.044908
v 0.709482 0.425689 0.993275
v 0.473799 0.473799 1.105532
v 0.168300 0.504900 1.178101
v -0.168300 0.504900 1.178101
v -0.473799 0.473799 1.105532
v -0.709482 0.425689 0.993275
v 0.649625 0.649625 0.909475
v 0.425689 0.709482 0.993275
v 0.149273 0.746363 1.044908
v -0.149273 0.746363 1.044908
v -0.425689 0.709482 0.993275
v -0.649625 0.649625 0.909475
v 0.649625 0.909475 -0.649625
v 0.709482 0.993275 -0.425689
v 0.746363 1.044908 -0.149273
v 0.746363 1.044908 0.149273
v 0.709482 0.993275 0.425689
v 0.649625 0.909475 0.649625
v 0.425689 0.993275 -0.709482
v 0.473799 1.105532 -0.473799
v 0.504900 1.178101 -0.168300
v 0.504900 1.178101 0.168300
v 0.473799 1.105532 0.473799
v 0.425689 0.993275 0.709482
v 0.149273 1.044908 -0.746363
v 0.168300 1.178101 -0.504900
v 0.181020 1.267137 -0.181020
v 0.181020 1.267137 0.181020
v 0.168300 1.178101 0.504900
v 0.149273 1.044908 0.746363
v -0.149273 1.044908 -0.746363
v -0.168300 1.178101 -0.504900
v -0.181020 1.267137 -0.181020
v -0.181020 1.267137 0.181020
v -0.168300 1.178101 0.504900
v -0.149273 1.044908 0.746363
v -0.425689 0.993275 -0.709482
v -0.473799 1.105532 -0.473799
v -0.504900 1.178101 -0.168300
v -0.504900 1.178101 0.168300
v -0.473799 1.105532 0.473799
v -0.425689 0.993275 0.709482
v -0.649625 0.909475 -0.649625
v -0.709482 0.993275 -0.425689
v -0.746363 1.044908 -0.149273
v -0.746363 1.044908 0.149273
v -0.709482 0.993275 0.425689
v -0.649625 0.909475 0.649625
vn -0.5418 0.6426 0.5418
vn -0.5418 0.5418 0.6426
vn -0.6426 0.5418 -0.5418
vn 0.5418 -0.6426 0.5418
vn 0.6426 0.5418 0.5418
vn 0.5418 0.5418 -0.6426
vn 0.5418 -0.5418 -0.6426
vn 0.5901 -0.3949 -0.7041
vn 0.6256 -0.2102 -0.7513
vn 0.6388 -0.0000 -0.7694
vn 0.6256 0.2102 -0.7513
vn 0.5901 0.3949 -0.7041
vn -0.5418 -0.5418 -0.6426
vn -0.3949 -0.5901 -0.7041
vn -0.2102 -0.6256 -0.7513
vn -0.0000 -0.6388 -0.7694
vn 0.2102 -0.6256 -0.7513
vn 0.3949 -0.5901 -0.7041
vn -0.5901 -0.3949 -0.7041
vn -0.4378 -0.4378 -0.7853
vn -0.2364 -0.4706 -0.8501
vn -0.0000 -0.4830 -0.8756
vn 0.2364 -0.4706 -0.8501
vn 0.4378 -0.4378 -0.7853
vn -0.6256 -0.2102 -0.7513
vn -0.4706 -0.2364 -0.8501
vn -0.2571 -0.2571 -0.9316
vn -0.0000 -0.2651 -0.9642
vn 0.2571 -0.2571 -0.9316
vn 0.4706 -0.2364 -0.8501
vn -0.6388 -0.0000 -0.7694
vn -0.4830 -0.0000 -0.8756
vn -0.2651 -0.0000 -0.9642
vn -0.0000 -0.0000 -1.0000
vn 0.2651 -0.0000 -0.9642
vn 0.4830 -0.0000 -0.8756
vn -0.6256 0.2102 -0.7513
vn -0.4706 0.2364 -0.8501
vn -0.2571 0.2571 -0.9316
vn -0.0000 0.2651 -0.9642
vn 0.2571 0.2571 -0.9316
vn 0.4706 0.2364 -0.8501
vn -0.5901 0.3949 -0.7041
vn -0.4378 0.4378 -0.7853
vn -0.2364 0.4706 -0.8501
vn -0.0000 0.4830 -0.8756
vn 0.2364 0.4706 -0.8501
vn 0.4378 0.4378 -0.7853
vn -0.5418 0.5418 -0.6426
vn -0.3949 0.5901 -0.7041
vn -0.2102 0.6256 -0.7513
vn -0.0000 0.6388 -0.7694
vn 0.2102 0.6256 -0.7513
vn 0.3949 0.5901 -0.7041
vn 0.6426 -0.5418 0.5418
vn 0.7041 -0.3949 0.5901
vn 0.7513 -0.2102 0.6256
vn 0.7694 -0.0000 0.6388
vn 0.7513 0.2102 0.6256
vn 0.7041 0.3949 0.5901
vn 0.6426 -0.5418 -0.5418
vn 0.7041 -0.5901 -0.3949
vn 0.7513 -0.6256 -0.2102
vn 0.7694 -0.6388 -0.0000
vn 0.7513 -0.6256 0.2102
vn 0.7041 -0.5901 0.3949
vn 0.7041 -0.3949 -0.5901
vn 0.7853 -0.4378 -0.4378
vn 0.8501 -0.4706 -0.2364
vn 0.8756 -0.4830 -0.0000
vn 0.8501 -0.4706 0.2364
vn 0.7853 -0.4378 0.4378
vn 0.7513 -0.2102 -0.6256
vn 0.8501 -0.2364 -0.4706
vn 0.9316 -0.2571 -0.2571
vn 0.9642 -0.2651 -0.0000
vn 0.9316 -0.2571 0.2571
vn 0.8501 -0.2364 0.4706
vn 0.7694 -0.0000 -0.6388
vn 0.8756 -0.0000 -0.4830
vn 0.9642 -0.0000 -0.2651
vn 1.0000 -0.0000 -0.0000
vn 0.9642 -0.0000 0.2651
vn 0.8756 -0.0000 0.4830
vn 0.7513 0.2102 -0.6256
vn 0.8501 0.2364 -0.4706
vn 0.9316 0.2571 -0.2571
vn 0.9642 0.2651 -0.0000
vn 0.9316 0.2571 0.2571
vn 0.8501 0.2364 0.4706
vn 0.7041 0.3949 -0.5901
vn 0.7853 0.4378 -0.4378
vn 0.8501 0.4706 -0.2364
vn 0.8756 0.4830 -0.0000
vn 0.8501 0.4706 0.2364
vn 0.7853 0.4378 0.4378
vn 0.6426 0.5418 -0.5418
vn 0.7041 0.5901 -0.3949
vn 0.7513 0.6256 -0.2102
vn 0.7694 0.6388 -0.0000
vn 0.7513 0.6256 0.2102
vn 0.7041 0.5901 0.3949
vn -0.5418 -0.6426 0.5418
vn -0.3949 -0.7041 0.5901
vn -0.2102 -0.7513 0.6256
vn -0.0000 -0.7694 0.6388
vn 0.2102 -0.7513 0.6256
vn 0.3949 -0.7041 0.5901
vn -0.5418 -0.6426 -0.5418
vn -0.5901 -0.7041 -0.3949
vn -0.6256 -0.7513 -0.2102
vn -0.6388 -0.7694 -0.0000
vn -0.6256 -0.7513 0.2102
vn -0.5901 -0.7041 0.3949
vn -0.3949 -0.7041 -0.5901
vn -0.4378 -0.7853 -0.4378
vn -0.4706 -0.8501 -0.2364
vn -0.4830 -0.8756 -0.0000
vn -0.4706 -0.8501 0.2364
vn -0.4378 -0.7853 0.4378
vn -0.2102 -0.7513 -0.6256
vn -0.2364 -0.8501 -0.4706
vn -0.2571 -0.9316 -0.2571
vn -0.2651 -0.9642 -0.0000
vn -0.2571 -0.9316 0.2571
vn -0.2364 -0.8501 0.4706
vn -0.0000 -0.7694 -0.6388
vn -0.0000 -0.8756 -0.4830
vn -0.0000 -0.9642 -0.2651
vn -0.0000 -1.0000 -0.0000
vn -0.0000 -0.9642 0.2651
vn -0.0000 -0.8756 0.4830
vn 0.2102 -0.7513 -0.6256
vn 0.2364 -0.8501 -0.4706
vn 0.2571 -0.9316 -0.2571
vn 0.2651 -0.9642 -0.0000
vn 0.2571 -0.9316 0.2571
vn 0.2364 -0.8501 0.4706
vn 0.3949 -0.7041 -0.5901
vn 0.4378 -0.7853 -0.4378
vn 0.4706 -0.8501 -0.2364
vn 0.4830 -0.8756 -0.0000
vn 0.4706 -0.8501 0.2364
vn 0.4378 -0.7853 0.4378
vn 0.5418 -0.6426 -0.5418
vn 0.5901 -0.7041 -0.3949
vn 0.6256 -0.7513 -0.2102
vn 0.6388 -0.7694 -0.0000
vn 0.6256 -0.7513 0.2102
vn 0.5901 -0.7041 0.3949
vn -0.6426 -0.5418 -0.5418
vn -0.7041 -0.3949 -0.5901
vn -0.7513 -0.2102 -0.6256
vn -0.7694 -0.0000 -0.6388
vn -0.7513 0.2102 -0.6256
vn -0.7041 0.3949 -0.5901
vn -0.6426 -0.5418 0.5418
vn -0.7041 -0.5901 0.3949
vn -0.7513 -0.6256 0.2102
vn -0.7694 -0.6388 -0.0000
vn -0.7513 -0.6256 -0.2102
vn -0.7041 -0.5901 -0.3949
vn -0.7041 -0.3949 0.5901
vn -0.7853 -0.4378 0.4378
vn -0.8501 -0.4706 0.2364
vn -0.8756 -0.4830 -0.0000
vn -0.8501 -0.4706 -0.2364
vn -0.7853 -0.4378 -0.4378
vn -0.7513 -0.2102 0.6256
vn -0.8501 -0.2364 0.4706
vn -0.9316 -0.2571 0.2571
vn -0.9642 -0.2651 -0.0000
vn -0.9316 -0.2571 -0.2571
vn -0.8501 -0.2364 -0.4706
vn -0.7694 -0.0000 0.6388
vn -0.8756 -0.0000 0.4830
vn -0.9642 -0.0000 0.2651
vn -1.0000 -0.0000 -0.0000
vn -0.9642 -0.0000 -0.2651
vn -0.8756 -0.0000 -0.4830
vn -0.7513 0.2102 0.6256
vn -0.8501 0.2364 0.4706
vn -0.9316 0.2571 0.2571
vn -0.9642 0.2651 -0.0000
vn -0.9316 0.2571 -0.2571
vn -0.8501 0.2364 -0.4706
vn -0.7041 0.3949 0.5901
vn -0.7853 0.4378 0.4378
vn -0.8501 0.4706 0.2364
vn -0.8756 0.4830 -0.0000
vn -0.8501 0.4706 -0.2364
vn -0.7853 0.4378 -0.4378
vn -0.6426 0.5418 0.5418
vn -0.7041 0.5901 0.3949
vn -0.7513 0.6256 0.2102
vn -0.7694 0.6388 -0.0000
vn -0.7513 0.6256 -0.2102
vn -0.7041 0.5901 -0.3949
vn -0.5418 -0.5418 0.6426
vn -0.5901 -0.3949 0.7041
vn -0.6256 -0.2102 0.7513
vn -0.6388 -0.0000 0.7694
vn -0.6256 0.2102 0.7513
vn -0.5901 0.3949 0.7041
vn 0.5418 -0.5418 0.6426
vn 0.3949 -0.5901 0.7041
vn 0.2102 -0.6256 0.7513
vn -0.0000 -0.6388 0.7694
vn -0.2102 -0.6256 0.7513
vn -0.3949 -0.5901 0.7041
vn 0.5901 -0.3949 0.7041
vn 0.4378 -0.4378 0.7853
vn 0.2364 -0.4706 0.8501
vn -0.0000 -0.4830 0.8756
vn -0.2364 -0.4706 0.8501
vn -0.4378 -0.4378 0.7853
vn 0.6256 -0.2102 0.7513
vn 0.4706 -0.2364 0.8501
vn 0.2571 -0.2571 0.9316
vn -0.0000 -0.2651 0.9642
vn -0.2571 -0.2571 0.9316
vn -0.4706 -0.2364 0.8501
vn 0.6388 -0.0000 0.7694
vn 0.4830 -0.0000 0.8756
vn 0.2651 -0.0000 0.9642
vn -0.0000 -0.0000 1.0000
vn -0.2651 -0.0000 0.9642
vn -0.4830 -0.0000 0.8756
vn 0.6256 0.2102 0.7513
vn 0.4706 0.2364 0.8501
vn 0.2571 0.2571 0.9316
vn -0.0000 0.2651 0.9642
vn -0.2571 0.2571 0.9316
vn -0.4706 0.2364 0.8501
vn 0.5901 0.3949 0.7041
vn 0.4378 0.4378 0.7853
vn 0.2364 0.4706 0.8501
vn -0.0000 0.4830 0.8756
vn -0.2364 0.4706 0.8501
vn -0.4378 0.4378 0.7853
vn 0.5418 0.5418 0.6426
vn 0.3949 0.5901 0.7041
vn 0.2102 0.6256 0.7513
vn -0.0000 0.6388 0.7694
vn -0.2102 0.6256 0.7513
vn -0.3949 0.5901 0.7041
vn 0.5418 0.6426 0.5418
vn 0.3949 0.7041 0.5901
vn 0.2102 0.7513 0.6256
vn -0.0000 0.7694 0.6388
vn -0.2102 0.7513 0.6256
vn -0.3949 0.7041 0.5901
vn 0.5418 0.6426 -0.5418
vn 0.5901 0.7041 -0.3949
vn 0.6256 0.7513 -0.2102
vn 0.6388 0.7694 -0.0000
vn 0.6256 0.7513 0.2102
vn 0.5901 0.7041 0.3949
vn 0.3949 0.7041 -0.5901
vn 0.4378 0.7853 -0.4378
vn 0.4706 0.8501 -0.2364
vn 0.4830 0.8756 -0.0000
vn 0.4706 0.8501 0.2364
vn 0.4378 0.7853 0.4378
vn 0.2102 0.7513 -0.6256
vn 0.2364 0.8501 -0.4706
vn 0.2571 0.9316 -0.2571
vn 0.2651 0.9642 -0.0000
vn 0.2571 0.9316 0.2571
vn 0.2364 0.8501 0.4706
vn -0.0000 0.7694 -0.6388
vn -0.0000 0.8756 -0.4830
vn -0.0000 0.9642 -0.2651
vn -0.0000 1.0000 -0.0000
vn -0.0000 0.9642 0.2651
vn -0.0000 0.8756 0.4830
vn -0.2102 0.7513 -0.6256
vn -0.2364 0.8501 -0.4706
vn -0.2571 0.9316 -0.2571
vn -0.2651 0.9642 -0.0000
vn -0.2571 0.9316 0.2571
vn -0.2364 0.8501 0.4706
vn -0.3949 0.7041 -0.5901
vn -0.4378 0.7853 -0.4378
vn -0.4706 0.8501 -0.2364
vn -0.4830 0.8756 -0.0000
vn -0.4706 0.8501 0.2364
vn -0.4378 0.7853 0.4378
vn -0.5418 0.6426 -0.5418
vn -0.5901 0.7041 -0.3949
vn -0.6256 0.7513 -0.2102
vn -0.6388 0.7694 -0.0000
vn -0.6256 0.7513 0.2102
vn -0.5901 0.7041 0.3949
vt 0.839286 0.714286
vt 0.875000 0.714286
vt 0.875000 0.750000
vt 0.839286 0.750000
vt 0.589286 0.964286
vt 0.625000 0.964286
vt 0.625000 1.000000
vt 0.589286 1.000000
vt 0.589286 0.214286
vt 0.625000 0.214286
vt 0.625000 0.250000
vt 0.589286 0.250000
vt 0.339286 0.714286
vt 0.375000 0.714286
vt 0.375000 0.750000
vt 0.339286 0.750000
vt 0.589286 0.714286
vt 0.625000 0.714286
vt 0.625000 0.750000
vt 0.589286 0.750000
vt 0.589286 0.464286
vt 0.625000 0.464286
vt 0.625000 0.500000
vt 0.589286 0.500000
vt 0.375000 0.464286
vt 0.410714 0.464286
vt 0.410714 0.500000
vt 0.375000 0.500000
vt 0.446429 0.464286
vt 0.446429 0.500000
vt 0.482143 0.464286
vt 0.482143 0.500000
vt 0.517857 0.464286
vt 0.517857 0.500000
vt 0.553571 0.464286
vt 0.553571 0.500000
vt 0.375000 0.250000
vt 0.410714 0.250000
vt 0.410714 0.285714
vt 0.375000 0.285714
vt 0.410714 0.321429
vt 0.375000 0.321429
vt 0.410714 0.357143
vt 0.375000 0.357143
vt 0.410714 0.392857
vt 0.375000 0.392857
vt 0.410714 0.428571
vt 0.375000 0.428571
vt 0.446429 0.250000
vt 0.446429 0.285714
vt 0.446429 0.321429
vt 0.446429 0.357143
vt 0.446429 0.392857
vt 0.446429 0.428571
vt 0.482143 0.250000
vt 0.482143 0.285714
vt 0.482143 0.321429
vt 0.482143 0.357143
vt 0.482143 0.392857
vt 0.482143 0.428571
vt 0.517857 0.250000
vt 0.517857 0.285714
vt 0.517857 0.321429
vt 0.517857 0.357143
vt 0.517857 0.392857
vt 0.517857 0.428571
vt 0.553571 0.250000
vt 0.553571 0.285714
vt 0.553571 0.321429
vt 0.553571 0.357143
vt 0.553571 0.392857
vt 0.553571 0.428571
vt 0.589286 0.285714
vt 0.589286 0.321429
vt 0.589286 0.357143
vt 0.589286 0.392857
vt 0.589286 0.428571
vt 0.625000 0.285714
vt 0.625000 0.321429
vt 0.625000 0.357143
vt 0.625000 0.392857
vt 0.625000 0.428571
vt 0.410714 0.714286
vt 0.410714 0.750000
vt 0.446429 0.714286
vt 0.446429 0.750000
vt 0.482143 0.714286
vt 0.482143 0.750000
vt 0.517857 0.714286
vt 0.517857 0.750000
vt 0.553571 0.714286
vt 0.553571 0.750000
vt 0.410714 0.535714
vt 0.375000 0.535714
vt 0.410714 0.571429
vt 0.375000 0.571429
vt 0.410714 0.607143
vt 0.375000 0.607143
vt 0.410714 0.642857
vt 0.375000 0.642857
vt 0.410714 0.678571
vt 0.375000 0.678571
vt 0.446429 0.535714
vt 0.446429 0.571429
vt 0.446429 0.607143
vt 0.446429 0.642857
vt 0.446429 0.678571
vt 0.482143 0.535714
vt 0.482143 0.571429
vt 0.482143 0.607143
vt 0.482143 0.642857
vt 0.482143 0.678571
vt 0.517857 0.535714
vt 0.517857 0.571429
vt 0.517857 0.607143
vt 0.517857 0.642857
vt 0.517857 0.678571
vt 0.553571 0.535714
vt 0.553571 0.571429
vt 0.553571 0.607143
vt 0.553571 0.642857
vt 0.553571 0.678571
vt 0.589286 0.535714
vt 0.589286 0.571429
vt 0.589286 0.607143
vt 0.589286 0.642857
vt 0.589286 0.678571
vt 0.625000 0.535714
vt 0.625000 0.571429
vt 0.625000 0.607143
vt 0.625000 0.642857
vt 0.625000 0.678571
vt 0.125000 0.714286
vt 0.160714 0.714286
vt 0.160714 0.750000
vt 0.125000 0.750000
vt 0.196429 0.714286
vt 0.196429 0.750000
vt 0.232143 0.714286
vt 0.232143 0.750000
vt 0.267857 0.714286
vt 0.267857 0.750000
vt 0.303571 0.714286
vt 0.303571 0.750000
vt 0.125000 0.500000
vt 0.160714 0.500000
vt 0.160714 0.535714
vt 0.125000 0.535714
vt 0.160714 0.571429
vt 0.125000 0.571429
vt 0.160714 0.607143
vt 0.125000 0.607143
vt 0.160714 0.642857
vt 0.125000 0.642857
vt 0.160714 0.678571
vt 0.125000 0.678571
vt 0.196429 0.500000
vt 0.196429 0.535714
vt 0.196429 0.571429
vt 0.196429 0.607143
vt 0.196429 0.642857
vt 0.196429 0.678571
vt 0.232143 0.500000
vt 0.232143 0.535714
vt 0.232143 0.571429
vt 0.232143 0.607143
vt 0.232143 0.642857
vt 0.232143 0.678571
vt 0.267857 0.500000
vt 0.267857 0.535714
vt 0.267857 0.571429
vt 0.267857 0.607143
vt 0.267857 0.642857
vt 0.267857 0.678571
vt 0.303571 0.500000
vt 0.303571 0.535714
vt 0.303571 0.571429
vt 0.303571 0.607143
vt 0.303571 0.642857
vt 0.303571 0.678571
vt 0.339286 0.500000
vt 0.339286 0.535714
vt 0.339286 0.571429
vt 0.339286 0.607143
vt 0.339286 0.642857
vt 0.339286 0.678571
vt 0.375000 0.214286
vt 0.410714 0.214286
vt 0.446429 0.214286
vt 0.482143 0.214286
vt 0.517857 0.214286
vt 0.553571 0.214286
vt 0.375000 0.000000
vt 0.410714 0.000000
vt 0.410714 0.035714
vt 0.375000 0.035714
vt 0.410714 0.071429
vt 0.375000 0.071429
vt 0.410714 0.107143
vt 0.375000 0.107143
vt 0.410714 0.142857
vt 0.375000 0.142857
vt 0.410714 0.178571
vt 0.375000 0.178571
vt 0.446429 0.000000
vt 0.446429 0.035714
vt 0.446429 0.071429
vt 0.446429 0.107143
vt 0.446429 0.142857
vt 0.446429 0.178571
vt 0.482143 0.000000
vt 0.482143 0.035714
vt 0.482143 0.071429
vt 0.482143 0.107143
vt 0.482143 0.142857
vt 0.482143 0.178571
vt 0.517857 0.000000
vt 0.517857 0.035714
vt 0.517857 0.071429
vt 0.517857 0.107143
vt 0.517857 0.142857
vt 0.517857 0.178571
vt 0.553571 0.000000
vt 0.553571 0.035714
vt 0.553571 0.071429
vt 0.553571 0.107143
vt 0.553571 0.142857
vt 0.553571 0.178571
vt 0.589286 0.000000
vt 0.589286 0.035714
vt 0.589286 0.071429
vt 0.589286 0.107143
vt 0.589286 0.142857
vt 0.589286 0.178571
vt 0.625000 0.000000
vt 0.625000 0.035714
vt 0.625000 0.071429
vt 0.625000 0.107143
vt 0.625000 0.142857
vt 0.625000 0.178571
vt 0.375000 0.964286
vt 0.410714 0.964286
vt 0.410714 1.000000
vt 0.375000 1.000000
vt 0.446429 0.964286
vt 0.446429 1.000000
vt 0.482143 0.964286
vt 0.482143 1.000000
vt 0.517857 0.964286
vt 0.517857 1.000000
vt 0.553571 0.964286
vt 0.553571 1.000000
vt 0.410714 0.785714
vt 0.375000 0.785714
vt 0.410714 0.821429
vt 0.375000 0.821429
vt 0.410714 0.857143
vt 0.375000 0.857143
vt 0.410714 0.892857
vt 0.375000 0.892857
vt 0.410714 0.928571
vt 0.375000 0.928571
vt 0.446429 0.785714
vt 0.446429 0.821429
vt 0.446429 0.857143
vt 0.446429 0.892857
vt 0.446429 0.928571
vt 0.482143 0.785714
vt 0.482143 0.821429
vt 0.482143 0.857143
vt 0.482143 0.892857
vt 0.482143 0.928571
vt 0.517857 0.785714
vt 0.517857 0.821429
vt 0.517857 0.857143
vt 0.517857 0.892857
vt 0.517857 0.928571
vt 0.553571 0.785714
vt 0.553571 0.821429
vt 0.553571 0.857143
vt 0.553571 0.892857
vt 0.553571 0.928571
vt 0.589286 0.785714
vt 0.589286 0.821429
vt 0.589286 0.857143
vt 0.589286 0.892857
vt 0.589286 0.928571
vt 0.625000 0.785714
vt 0.625000 0.821429
vt 0.625000 0.857143
vt 0.625000 0.892857
vt 0.625000 0.928571
vt 0.660714 0.714286
vt 0.660714 0.750000
vt 0.696429 0.714286
vt 0.696429 0.750000
vt 0.732143 0.714286
vt 0.732143 0.750000
vt 0.767857 0.714286
vt 0.767857 0.750000
vt 0.803571 0.714286
vt 0.803571 0.750000
vt 0.660714 0.500000
vt 0.660714 0.535714
vt 0.660714 0.571429
vt 0.660714 0.607143
vt 0.660714 0.642857
vt 0.660714 0.678571
vt 0.696429 0.500000
vt 0.696429 0.535714
vt 0.696429 0.571429
vt 0.696429 0.607143
vt 0.696429 0.642857
vt 0.696429 0.678571
vt 0.732143 0.500000
vt 0.732143 0.535714
vt 0.732143 0.571429
vt 0.732143 0.607143
vt 0.732143 0.642857
vt 0.732143 0.678571
vt 0.767857 0.500000
vt 0.767857 0.535714
vt 0.767857 0.571429
vt 0.767857 0.607143
vt 0.767857 0.642857
vt 0.767857 0.678571
vt 0.803571 0.500000
vt 0.803571 0.535714
vt 0.803571 0.571429
vt 0.803571 0.607143
vt 0.803571 0.642857
vt 0.803571 0.678571
vt 0.839286 0.500000
vt 0.839286 0.535714
vt 0.839286 0.571429
vt 0.839286 0.607143
vt 0.839286 0.642857
vt 0.839286 0.678571
vt 0.875000 0.500000
vt 0.875000 0.535714
vt 0.875000 0.571429
vt 0.875000 0.607143
vt 0.875000 0.642857
vt 0.875000 0.678571
s 0
usemtl Material
f 296/1/1 63/2/1 7/3/1 50/4/1
f 260/5/2 50/6/2 7/7/2 32/8/2
f 224/9/3 68/10/3 5/11/3 39/12/3
f 188/13/4 75/14/4 4/15/4 62/16/4
f 152/17/5 56/18/5 3/19/5 33/20/5
f 116/21/6 74/22/6 1/23/6 21/24/6
f 15/25/7 86/26/7 26/27/7 2/28/7
f 86/26/8 92/29/8 25/30/8 26/27/8
f 92/29/9 98/31/9 24/32/9 25/30/9
f 98/31/10 104/33/10 23/34/10 24/32/10
f 104/33/11 110/35/11 22/36/11 23/34/11
f 110/35/12 116/21/12 21/24/12 22/36/12
f 6/37/13 44/38/13 81/39/13 20/40/13
f 20/40/14 81/39/14 82/41/14 19/42/14
f 19/42/15 82/41/15 83/43/15 18/44/15
f 18/44/16 83/43/16 84/45/16 17/46/16
f 17/46/17 84/45/17 85/47/17 16/48/17
f 16/48/18 85/47/18 86/26/18 15/25/18
f 44/38/19 43/49/19 87/50/19 81/39/19
f 81/39/20 87/50/20 88/51/20 82/41/20
f 82/41/21 88/51/21 89/52/21 83/43/21
f 83/43/22 89/52/22 90/53/22 84/45/22
f 84/45/23 90/53/23 91/54/23 85/47/23
f 85/47/24 91/54/24 92/29/24 86/26/24
f 43/49/25 42/55/25 93/56/25 87/50/25
f 87/50/26 93/56/26 94/57/26 88/51/26
f 88/51/27 94/57/27 95/58/27 89/52/27
f 89/52/28 95/58/28 96/59/28 90/53/28
f 90/53/29 96/59/29 97/60/29 91/54/29
f 91/54/30 97/60/30 98/31/30 92/29/30
f 42/55/31 41/61/31 99/62/31 93/56/31
f 93/56/32 99/62/32 100/63/32 94/57/32
f 94/57/33 100/63/33 101/64/33 95/58/33
f 95/58/34 101/64/34 102/65/34 96/59/34
f 96/59/35 102/65/35 103/66/35 97/60/35
f 97/60/36 103/66/36 104/33/36 98/31/36
f 41/61/37 40/67/37 105/68/37 99/62/37
f 99/62/38 105/68/38 106/69/38 100/63/38
f 100/63/39 106/69/39 107/70/39 101/64/39
f 101/64/40 107/70/40 108/71/40 102/65/40
f 102/65/41 108/71/41 109/72/41 103/66/41
f 103/66/42 109/72/42 110/35/42 104/33/42
f 40/67/43 39/12/43 111/73/43 105/68/43
f 105/68/44 111/73/44 112/74/44 106/69/44
f 106/69/45 112/74/45 113/75/45 107/70/45
f 107/70/46 113/75/46 114/76/46 108/71/46
f 108/71/47 114/76/47 115/77/47 109/72/47
f 109/72/48 115/77/48 116/21/48 110/35/48
f 39/12/49 5/11/49 69/78/49 111/73/49
f 111/73/50 69/78/50 70/79/50 112/74/50
f 112/74/51 70/79/51 71/80/51 113/75/51
f 113/75/52 71/80/52 72/81/52 114/76/52
f 114/76/53 72/81/53 73/82/53 115/77/53
f 115/77/54 73/82/54 74/22/54 116/21/54
f 75/14/55 122/83/55 38/84/55 4/15/55
f 122/83/56 128/85/56 37/86/56 38/84/56
f 128/85/57 134/87/57 36/88/57 37/86/57
f 134/87/58 140/89/58 35/90/58 36/88/58
f 140/89/59 146/91/59 34/92/59 35/90/59
f 146/91/60 152/17/60 33/20/60 34/92/60
f 2/28/61 26/27/61 117/93/61 80/94/61
f 80/94/62 117/93/62 118/95/62 79/96/62
f 79/96/63 118/95/63 119/97/63 78/98/63
f 78/98/64 119/97/64 120/99/64 77/100/64
f 77/100/65 120/99/65 121/101/65 76/102/65
f 76/102/66 121/101/66 122/83/66 75/14/66
f 26/27/67 25/30/67 123/103/67 117/93/67
f 117/93/68 123/103/68 124/104/68 118/95/68
f 118/95/69 124/104/69 125/105/69 119/97/69
f 119/97/70 125/105/70 126/106/70 120/99/70
f 120/99/71 126/106/71 127/107/71 121/101/71
f 121/101/72 127/107/72 128/85/72 122/83/72
f 25/30/73 24/32/73 129/108/73 123/103/73
f 123/103/74 129/108/74 130/109/74 124/104/74
f 124/104/75 130/109/75 131/110/75 125/105/75
f 125/105/76 131/110/76 132/111/76 126/106/76
f 126/106/77 132/111/77 133/112/77 127/107/77
f 127/107/78 133/112/78 134/87/78 128/85/78
f 24/32/79 23/34/79 135/113/79 129/108/79
f 129/108/80 135/113/80 136/114/80 130/109/80
f 130/109/81 136/114/81 137/115/81 131/110/81
f 131/110/82 137/115/82 138/116/82 132/111/82
f 132/111/83 138/116/83 139/117/83 133/112/83
f 133/112/84 139/117/84 140/89/84 134/87/84
f 23/34/85 22/36/85 141/118/85 135/113/85
f 135/113/86 141/118/86 142/119/86 136/114/86
f 136/114/87 142/119/87 143/120/87 137/115/87
f 137/115/88 143/120/88 144/121/88 138/116/88
f 138/116/89 144/121/89 145/122/89 139/117/89
f 139/117/90 145/122/90 146/91/90 140/89/90
f 22/36/91 21/24/91 147/123/91 141/118/91
f 141/118/92 147/123/92 148/124/92 142/119/92
f 142/119/93 148/124/93 149/125/93 143/120/93
f 143/120/94 149/125/94 150/126/94 144/121/94
f 144/121/95 150/126/95 151/127/95 145/122/95
f 145/122/96 151/127/96 152/17/96 146/91/96
f 21/24/97 1/23/97 51/128/97 147/123/97
f 147/123/98 51/128/98 52/129/98 148/124/98
f 148/124/99 52/129/99 53/130/99 149/125/99
f 149/125/100 53/130/100 54/131/100 150/126/100
f 150/126/101 54/131/101 55/132/101 151/127/101
f 151/127/102 55/132/102 56/18/102 152/17/102
f 14/133/103 158/134/103 57/135/103 8/136/103
f 158/134/104 164/137/104 58/138/104 57/135/104
f 164/137/105 170/139/105 59/140/105 58/138/105
f 170/139/106 176/141/106 60/142/106 59/140/106
f 176/141/107 182/143/107 61/144/107 60/142/107
f 182/143/108 188/13/108 62/16/108 61/144/108
f 6/145/109 20/146/109 153/147/109 9/148/109
f 9/148/110 153/147/110 154/149/110 10/150/110
f 10/150/111 154/149/111 155/151/111 11/152/111
f 11/152/112 155/151/112 156/153/112 12/154/112
f 12/154/113 156/153/113 157/155/113 13/156/113
f 13/156/114 157/155/114 158/134/114 14/133/114
f 20/146/115 19/157/115 159/158/115 153/147/115
f 153/147/116 159/158/116 160/159/116 154/149/116
f 154/149/117 160/159/117 161/160/117 155/151/117
f 155/151/118 161/160/118 162/161/118 156/153/118
f 156/153/119 162/161/119 163/162/119 157/155/119
f 157/155/120 163/162/120 164/137/120 158/134/120
f 19/157/121 18/163/121 165/164/121 159/158/121
f 159/158/122 165/164/122 166/165/122 160/159/122
f 160/159/123 166/165/123 167/166/123 161/160/123
f 161/160/124 167/166/124 168/167/124 162/161/124
f 162/161/125 168/167/125 169/168/125 163/162/125
f 163/162/126 169/168/126 170/139/126 164/137/126
f 18/163/127 17/169/127 171/170/127 165/164/127
f 165/164/128 171/170/128 172/171/128 166/165/128
f 166/165/129 172/171/129 173/172/129 167/166/129
f 167/166/130 173/172/130 174/173/130 168/167/130
f 168/167/131 174/173/131 175/174/131 169/168/131
f 169/168/132 175/174/132 176/141/132 170/139/132
f 17/169/133 16/175/133 177/176/133 171/170/133
f 171/170/134 177/176/134 178/177/134 172/171/134
f 172/171/135 178/177/135 179/178/135 173/172/135
f 173/172/136 179/178/136 180/179/136 174/173/136
f 174/173/137 180/179/137 181/180/137 175/174/137
f 175/174/138 181/180/138 182/143/138 176/141/138
f 16/175/139 15/181/139 183/182/139 177/176/139
f 177/176/140 183/182/140 184/183/140 178/177/140
f 178/177/141 184/183/141 185/184/141 179/178/141
f 179/178/142 185/184/142 186/185/142 180/179/142
f 180/179/143 186/185/143 187/186/143 181/180/143
f 181/180/144 187/186/144 188/13/144 182/143/144
f 15/181/145 2/28/145 80/94/145 183/182/145
f 183/182/146 80/94/146 79/96/146 184/183/146
f 184/183/147 79/96/147 78/98/147 185/184/147
f 185/184/148 78/98/148 77/100/148 186/185/148
f 186/185/149 77/100/149 76/102/149 187/186/149
f 187/186/150 76/102/150 75/14/150 188/13/150
f 9/187/151 194/188/151 44/38/151 6/37/151
f 194/188/152 200/189/152 43/49/152 44/38/152
f 200/189/153 206/190/153 42/55/153 43/49/153
f 206/190/154 212/191/154 41/61/154 42/55/154
f 212/191/155 218/192/155 40/67/155 41/61/155
f 218/192/156 224/9/156 39/12/156 40/67/156
f 8/193/157 27/194/157 189/195/157 14/196/157
f 14/196/158 189/195/158 190/197/158 13/198/158
f 13/198/159 190/197/159 191/199/159 12/200/159
f 12/200/160 191/199/160 192/201/160 11/202/160
f 11/202/161 192/201/161 193/203/161 10/204/161
f 10/204/162 193/203/162 194/188/162 9/187/162
f 27/194/163 28/205/163 195/206/163 189/195/163
f 189/195/164 195/206/164 196/207/164 190/197/164
f 190/197/165 196/207/165 197/208/165 191/199/165
f 191/199/166 197/208/166 198/209/166 192/201/166
f 192/201/167 198/209/167 199/210/167 193/203/167
f 193/203/168 199/210/168 200/189/168 194/188/168
f 28/205/169 29/211/169 201/212/169 195/206/169
f 195/206/170 201/212/170 202/213/170 196/207/170
f 196/207/171 202/213/171 203/214/171 197/208/171
f 197/208/172 203/214/172 204/215/172 198/209/172
f 198/209/173 204/215/173 205/216/173 199/210/173
f 199/210/174 205/216/174 206/190/174 200/189/174
f 29/211/175 30/217/175 207/218/175 201/212/175
f 201/212/176 207/218/176 208/219/176 202/213/176
f 202/213/177 208/219/177 209/220/177 203/214/177
f 203/214/178 209/220/178 210/221/178 204/215/178
f 204/215/179 210/221/179 211/222/179 205/216/179
f 205/216/180 211/222/180 212/191/180 206/190/180
f 30/217/181 31/223/181 213/224/181 207/218/181
f 207/218/182 213/224/182 214/225/182 208/219/182
f 208/219/183 214/225/183 215/226/183 209/220/183
f 209/220/184 215/226/184 216/227/184 210/221/184
f 210/221/185 216/227/185 217/228/185 211/222/185
f 211/222/186 217/228/186 218/192/186 212/191/186
f 31/223/187 32/229/187 219/230/187 213/224/187
f 213/224/188 219/230/188 220/231/188 214/225/188
f 214/225/189 220/231/189 221/232/189 215/226/189
f 215/226/190 221/232/190 222/233/190 216/227/190
f 216/227/191 222/233/191 223/234/191 217/228/191
f 217/228/192 223/234/192 224/9/192 218/192/192
f 32/229/193 7/235/193 63/236/193 219/230/193
f 219/230/194 63/236/194 64/237/194 220/231/194
f 220/231/195 64/237/195 65/238/195 221/232/195
f 221/232/196 65/238/196 66/239/196 222/233/196
f 222/233/197 66/239/197 67/240/197 223/234/197
f 223/234/198 67/240/198 68/10/198 224/9/198
f 57/241/199 230/242/199 27/243/199 8/244/199
f 230/242/200 236/245/200 28/246/200 27/243/200
f 236/245/201 242/247/201 29/248/201 28/246/201
f 242/247/202 248/249/202 30/250/202 29/248/202
f 248/249/203 254/251/203 31/252/203 30/250/203
f 254/251/204 260/5/204 32/8/204 31/252/204
f 4/15/205 38/84/205 225/253/205 62/254/205
f 62/254/206 225/253/206 226/255/206 61/256/206
f 61/256/207 226/255/207 227/257/207 60/258/207
f 60/258/208 227/257/208 228/259/208 59/260/208
f 59/260/209 228/259/209 229/261/209 58/262/209
f 58/262/210 229/261/210 230/242/210 57/241/210
f 38/84/211 37/86/211 231/263/211 225/253/211
f 225/253/212 231/263/212 232/264/212 226/255/212
f 226/255/213 232/264/213 233/265/213 227/257/213
f 227/257/214 233/265/214 234/266/214 228/259/214
f 228/259/215 234/266/215 235/267/215 229/261/215
f 229/261/216 235/267/216 236/245/216 230/242/216
f 37/86/217 36/88/217 237/268/217 231/263/217
f 231/263/218 237/268/218 238/269/218 232/264/218
f 232/264/219 238/269/219 239/270/219 233/265/219
f 233/265/220 239/270/220 240/271/220 234/266/220
f 234/266/221 240/271/221 241/272/221 235/267/221
f 235/267/222 241/272/222 242/247/222 236/245/222
f 36/88/223 35/90/223 243/273/223 237/268/223
f 237/268/224 243/273/224 244/274/224 238/269/224
f 238/269/225 244/274/225 245/275/225 239/270/225
f 239/270/226 245/275/226 246/276/226 240/271/226
f 240/271/227 246/276/227 247/277/227 241/272/227
f 241/272/228 247/277/228 248/249/228 242/247/228
f 35/90/229 34/92/229 249/278/229 243/273/229
f 243/273/230 249/278/230 250/279/230 244/274/230
f 244/274/231 250/279/231 251/280/231 245/275/231
f 245/275/232 251/280/232 252/281/232 246/276/232
f 246/276/233 252/281/233 253/282/233 247/277/233
f 247/277/234 253/282/234 254/251/234 248/249/234
f 34/92/235 33/20/235 255/283/235 249/278/235
f 249/278/236 255/283/236 256/284/236 250/279/236
f 250/279/237 256/284/237 257/285/237 251/280/237
f 251/280/238 257/285/238 258/286/238 252/281/238
f 252/281/239 258/286/239 259/287/239 253/282/239
f 253/282/240 259/287/240 260/5/240 254/251/240
f 33/20/241 3/19/241 45/288/241 255/283/241
f 255/283/242 45/288/242 46/289/242 256/284/242
f 256/284/243 46/289/243 47/290/243 257/285/243
f 257/285/244 47/290/244 48/291/244 258/286/244
f 258/286/245 48/291/245 49/292/245 259/287/245
f 259/287/246 49/292/246 50/6/246 260/5/246
f 56/18/247 266/293/247 45/294/247 3/19/247
f 266/293/248 272/295/248 46/296/248 45/294/248
f 272/295/249 278/297/249 47/298/249 46/296/249
f 278/297/250 284/299/250 48/300/250 47/298/250
f 284/299/251 290/301/251 49/302/251 48/300/251
f 290/301/252 296/1/252 50/4/252 49/302/252
f 1/23/253 74/303/253 261/304/253 51/128/253
f 51/128/254 261/304/254 262/305/254 52/129/254
f 52/129/255 262/305/255 263/306/255 53/130/255
f 53/130/256 263/306/256 264/307/256 54/131/256
f 54/131/257 264/307/257 265/308/257 55/132/257
f 55/132/258 265/308/258 266/293/258 56/18/258
f 74/303/259 73/309/259 267/310/259 261/304/259
f 261/304/260 267/310/260 268/311/260 262/305/260
f 262/305/261 268/311/261 269/312/261 263/306/261
f 263/306/262 269/312/262 270/313/262 264/307/262
f 264/307/263 270/313/263 271/314/263 265/308/263
f 265/308/264 271/314/264 272/295/264 266/293/264
f 73/309/265 72/315/265 273/316/265 267/310/265
f 267/310/266 273/316/266 274/317/266 268/311/266
f 268/311/267 274/317/267 275/318/267 269/312/267
f 269/312/268 275/318/268 276/319/268 270/313/268
f 270/313/269 276/319/269 277/320/269 271/314/269
f 271/314/270 277/320/270 278/297/270 272/295/270
f 72/315/271 71/321/271 279/322/271 273/316/271
f 273/316/272 279/322/272 280/323/272 274/317/272
f 274/317/273 280/323/273 281/324/273 275/318/273
f 275/318/274 281/324/274 282/325/274 276/319/274
f 276/319/275 282/325/275 283/326/275 277/320/275
f 277/320/276 283/326/276 284/299/276 278/297/276
f 71/321/277 70/327/277 285/328/277 279/322/277
f 279/322/278 285/328/278 286/329/278 280/323/278
f 280/323/279 286/329/279 287/330/279 281/324/279
f 281/324/280 287/330/280 288/331/280 282/325/280
f 282/325/281 288/331/281 289/332/281 283/326/281
f 283/326/282 289/332/282 290/301/282 284/299/282
f 70/327/283 69/333/283 291/334/283 285/328/283
f 285/328/284 291/334/284 292/335/284 286/329/284
f 286/329/285 292/335/285 293/336/285 287/330/285
f 287/330/286 293/336/286 294/337/286 288/331/286
f 288/331/287 294/337/287 295/338/287 289/332/287
f 289/332/288 295/338/288 296/1/288 290/301/288
f 69/333/289 5/339/289 68/340/289 291/334/289
f 291/334/290 68/340/290 67/341/290 292/335/290
f 292/335/291 67/341/291 66/342/291 293/336/291
f 293/336/292 66/342/292 65/343/292 294/337/292
f 294/337/293 65/343/293 64/344/293 295/338/293
f 295/338/294 64/344/294 63/2/294 296/1/294
