# Blender 5.0.0
# www.blender.org
mtllib player.mtl
o 円
v 0.000000 0.000000 -1.000000
v -0.195090 0.000000 -0.980785
v -0.382683 0.000000 -0.923880
v -0.555570 0.000000 -0.831470
v -0.707107 0.000000 -0.707107
v -0.831470 0.000000 -0.555570
v -0.923880 0.000000 -0.382683
v -0.980785 0.000000 -0.195090
v -1.000000 0.000000 0.000000
v -0.980785 0.000000 0.195090
v -0.923880 0.000000 0.382683
v -0.831470 0.000000 0.555570
v -0.707107 0.000000 0.707107
v -0.555570 0.000000 0.831470
v -0.382683 0.000000 0.923880
v -0.195090 0.000000 0.980785
v 0.000000 0.000000 1.000000
v 0.195090 0.000000 0.980785
v 0.382683 0.000000 0.923880
v 0.555570 0.000000 0.831470
v 0.707107 0.000000 0.707107
v 0.831470 0.000000 0.555570
v 0.923880 0.000000 0.382683
v 0.980785 0.000000 0.195090
v 1.000000 0.000000 0.000000
v 0.980785 0.000000 -0.195090
v 0.923880 0.000000 -0.382683
v 0.831470 0.000000 -0.555570
v 0.707107 0.000000 -0.707107
v 0.555570 0.000000 -0.831470
v 0.382683 0.000000 -0.923880
v 0.195090 0.000000 -0.980785
v -0.000000 2.171033 -0.357563
v -0.069757 2.171033 -0.350693
v -0.136834 2.171033 -0.330345
v -0.198651 2.171033 -0.297303
v -0.252835 2.171033 -0.252835
v -0.297303 2.171033 -0.198651
v -0.330345 2.171033 -0.136834
v -0.350693 2.171033 -0.069757
v -0.357563 2.171033 -0.000000
v -0.350693 2.171033 0.069757
v -0.330345 2.171033 0.136833
v -0.297303 2.171033 0.198651
v -0.252835 2.171033 0.252835
v -0.198651 2.171033 0.297303
v -0.136834 2.171033 0.330345
v -0.069757 2.171033 0.350693
v -0.000000 2.171033 0.357563
v 0.069757 2.171033 0.350693
v 0.136833 2.171033 0.330345
v 0.198651 2.171033 0.297303
v 0.252835 2.171033 0.252835
v 0.297303 2.171033 0.198651
v 0.330345 2.171033 0.136833
v 0.350693 2.171033 0.069757
v 0.357563 2.171033 -0.000000
v 0.350693 2.171033 -0.069757
v 0.330345 2.171033 -0.136834
v 0.297303 2.171033 -0.198651
v 0.252835 2.171033 -0.252835
v 0.198651 2.171033 -0.297303
v 0.136833 2.171033 -0.330345
v 0.069757 2.171033 -0.350693
vn -0.0000 -1.0000 -0.0000
vn -0.0000 1.0000 -0.0000
vn 0.9180 0.2825 0.2785
vn -0.9180 0.2825 0.2785
vn 0.9547 0.2825 0.0940
vn -0.8460 0.2825 0.4522
vn 0.9547 0.2825 -0.0940
vn -0.7415 0.2825 0.6086
vn 0.9180 0.2825 -0.2785
vn -0.6086 0.2825 0.7415
vn 0.8460 0.2825 -0.4522
vn -0.4522 0.2825 0.8460
vn -0.0940 0.2825 -0.9547
vn 0.7415 0.2825 -0.6086
vn -0.2785 0.2825 0.9180
vn -0.2785 0.2825 -0.9180
vn 0.6086 0.2825 -0.7415
vn -0.0940 0.2825 0.9547
vn -0.4522 0.2825 -0.8460
vn 0.4522 0.2825 -0.8460
vn 0.0940 0.2825 0.9547
vn -0.6086 0.2825 -0.7415
vn 0.2785 0.2825 -0.9180
vn 0.2785 0.2825 0.9180
vn -0.7415 0.2825 -0.6086
vn 0.0940 0.2825 -0.9547
vn 0.4522 0.2825 0.8460
vn -0.8460 0.2825 -0.4522
vn 0.6086 0.2825 0.7415
vn -0.9180 0.2825 -0.2785
vn 0.7415 0.2825 0.6086
vn -0.9547 0.2825 -0.0940
vn 0.8460 0.2825 0.4522
vn -0.9547 0.2825 0.0940
vt 0.000000 0.000000
s 0
f 2/1/1 1/1/1 32/1/1 31/1/1 30/1/1 29/1/1 28/1/1 27/1/1 26/1/1 25/1/1 24/1/1 23/1/1 22/1/1 21/1/1 20/1/1 19/1/1 18/1/1 17/1/1 16/1/1 15/1/1 14/1/1 13/1/1 12/1/1 11/1/1 10/1/1 9/1/1 8/1/1 7/1/1 6/1/1 5/1/1 4/1/1 3/1/1
f 34/1/2 35/1/2 36/1/2 37/1/2 38/1/2 39/1/2 40/1/2 41/1/2 42/1/2 43/1/2 44/1/2 45/1/2 46/1/2 47/1/2 48/1/2 49/1/2 50/1/2 51/1/2 52/1/2 53/1/2 54/1/2 55/1/2 56/1/2 57/1/2 58/1/2 59/1/2 60/1/2 61/1/2 62/1/2 63/1/2 64/1/2 33/1/2
f 23/1/3 24/1/3 56/1/3 55/1/3
f 10/1/4 11/1/4 43/1/4 42/1/4
f 24/1/5 25/1/5 57/1/5 56/1/5
f 11/1/6 12/1/6 44/1/6 43/1/6
f 25/1/7 26/1/7 58/1/7 57/1/7
f 12/1/8 13/1/8 45/1/8 44/1/8
f 26/1/9 27/1/9 59/1/9 58/1/9
f 13/1/10 14/1/10 46/1/10 45/1/10
f 27/1/11 28/1/11 60/1/11 59/1/11
f 14/1/12 15/1/12 47/1/12 46/1/12
f 1/1/13 2/1/13 34/1/13 33/1/13
f 28/1/14 29/1/14 61/1/14 60/1/14
f 15/1/15 16/1/15 48/1/15 47/1/15
f 2/1/16 3/1/16 35/1/16 34/1/16
f 29/1/17 30/1/17 62/1/17 61/1/17
f 16/1/18 17/1/18 49/1/18 48/1/18
f 3/1/19 4/1/19 36/1/19 35/1/19
f 30/1/20 31/1/20 63/1/20 62/1/20
f 17/1/21 18/1/21 50/1/21 49/1/21
f 4/1/22 5/1/22 37/1/22 36/1/22
f 31/1/23 32/1/23 64/1/23 63/1/23
f 18/1/24 19/1/24 51/1/24 50/1/24
f 5/1/25 6/1/25 38/1/25 37/1/25
f 32/1/26 1/1/26 33/1/26 64/1/26
f 19/1/27 20/1/27 52/1/27 51/1/27
f 6/1/28 7/1/28 39/1/28 38/1/28
f 20/1/29 21/1/29 53/1/29 52/1/29
f 7/1/30 8/1/30 40/1/30 39/1/30
f 21/1/31 22/1/31 54/1/31 53/1/31
f 8/1/32 9/1/32 41/1/32 40/1/32
f 22/1/33 23/1/33 55/1/33 54/1/33
f 9/1/34 10/1/34 42/1/34 41/1/34
o 立方体
v -0.346851 2.257947 0.346851
v -0.346851 2.951649 0.346851
v -0.346851 2.257947 -0.346851
v -0.346851 2.951649 -0.346851
v 0.346851 2.257947 0.346851
v 0.346851 2.951649 0.346851
v 0.346851 2.257947 -0.346851
v 0.346851 2.951649 -0.346851
v -0.400509 2.204289 -0.200255
v -0.424804 2.179994 0.000000
v -0.400509 2.204289 0.200255
v -0.400509 2.404543 0.400509
v -0.424804 2.604798 0.424804
v -0.400509 2.805052 0.400509
v -0.400509 3.005307 0.200255
v -0.424804 3.029602 0.000000
v -0.400509 3.005307 -0.200255
v -0.400509 2.805052 -0.400509
v -0.424804 2.604798 -0.424804
v -0.400509 2.404543 -0.400509
v 0.200255 2.204289 -0.400509
v 0.000000 2.179994 -0.424804
v -0.200255 2.204289 -0.400509
v -0.200255 3.005307 -0.400509
v 0.000000 3.029602 -0.424804
v 0.200255 3.005307 -0.400509
v 0.400509 2.805053 -0.400509
v 0.424804 2.604798 -0.424804
v 0.400509 2.404543 -0.400509
v 0.400509 2.204288 0.200255
v 0.424804 2.179994 0.000000
v 0.400509 2.204288 -0.200255
v 0.400509 3.005307 -0.200255
v 0.424804 3.029602 0.000000
v 0.400509 3.005307 0.200255
v 0.400509 2.805053 0.400509
v 0.424804 2.604798 0.424804
v 0.400509 2.404543 0.400509
v -0.200255 2.204289 0.400509
v 0.000000 2.179994 0.424804
v 0.200255 2.204289 0.400509
v 0.200255 3.005307 0.400509
v 0.000000 3.029602 0.424804
v -0.200255 3.005307 0.400509
v 0.245261 3.095320 -0.245261
v 0.268670 3.142138 -0.000000
v 0.245261 3.095320 0.245261
v -0.000000 3.142137 -0.268670
v -0.000000 3.205562 -0.000000
v -0.000000 3.142137 0.268670
v -0.245261 3.095319 -0.245261
v -0.268670 3.142137 -0.000000
v -0.245261 3.095319 0.245261
v -0.245261 2.114276 -0.245261
v -0.268670 2.067459 -0.000000
v -0.245261 2.114276 0.245261
v -0.000000 2.067458 -0.268670
v -0.000000 2.004034 -0.000000
v -0.000000 2.067458 0.268670
v 0.245261 2.114276 -0.245261
v 0.268670 2.067458 -0.000000
v 0.245261 2.114276 0.245261
v 0.245261 2.359537 0.490522
v -0.000000 2.336128 0.537339
v -0.245261 2.359537 0.490521
v 0.268670 2.604798 0.537340
v -0.000000 2.604798 0.600764
v -0.268670 2.604798 0.537339
v 0.245261 2.850059 0.490522
v -0.000000 2.873467 0.537339
v -0.245261 2.850059 0.490521
v 0.490522 2.359537 -0.245261
v 0.537340 2.336128 -0.000000
v 0.490522 2.359537 0.245261
v 0.537340 2.604798 -0.268670
v 0.600764 2.604798 -0.000000
v 0.537340 2.604798 0.268670
v 0.490522 2.850059 -0.245261
v 0.537340 2.873468 -0.000000
v 0.490522 2.850059 0.245261
v -0.245261 2.359537 -0.490521
v -0.000000 2.336128 -0.537339
v 0.245261 2.359537 -0.490522
v -0.268670 2.604798 -0.537339
v -0.000000 2.604798 -0.600764
v 0.268670 2.604798 -0.537340
v -0.245261 2.850059 -0.490521
v -0.000000 2.873467 -0.537339
v 0.245261 2.850059 -0.490522
v -0.490521 2.359537 0.245261
v -0.537339 2.336128 -0.000000
v -0.490521 2.359537 -0.245261
v -0.537339 2.604798 0.268670
v -0.600763 2.604798 -0.000000
v -0.537339 2.604798 -0.268670
v -0.490521 2.850059 0.245261
v -0.537339 2.873467 -0.000000
v -0.490521 2.850059 -0.245261
vn -0.7071 0.5000 -0.5000
vn 0.5000 0.5000 -0.7071
vn 0.7071 0.5000 0.5000
vn -0.5000 0.5000 0.7071
vn 0.5000 -0.7071 0.5000
vn -0.5000 0.7071 0.5000
vn 0.5000 0.7071 0.5000
vn 0.1887 0.8105 0.5545
vn -0.1887 0.8105 0.5545
vn 0.5000 0.7071 -0.5000
vn 0.5545 0.8105 -0.1887
vn 0.5545 0.8105 0.1887
vn 0.1887 0.8105 -0.5545
vn 0.2142 0.9530 -0.2142
vn 0.2142 0.9530 0.2142
vn -0.1887 0.8105 -0.5545
vn -0.2142 0.9530 -0.2142
vn -0.2142 0.9530 0.2142
vn -0.5000 0.7071 -0.5000
vn -0.5545 0.8105 -0.1887
vn -0.5545 0.8105 0.1887
vn -0.5000 -0.7071 0.5000
vn -0.1887 -0.8105 0.5545
vn 0.1887 -0.8105 0.5545
vn -0.5000 -0.7071 -0.5000
vn -0.5545 -0.8105 -0.1887
vn -0.5545 -0.8105 0.1887
vn -0.1887 -0.8105 -0.5545
vn -0.2142 -0.9530 -0.2142
vn -0.2142 -0.9530 0.2142
vn 0.1887 -0.8105 -0.5545
vn 0.2142 -0.9530 -0.2142
vn 0.2142 -0.9530 0.2142
vn 0.5000 -0.7071 -0.5000
vn 0.5545 -0.8105 -0.1887
vn 0.5545 -0.8105 0.1887
vn -0.5000 -0.5000 0.7071
vn -0.5545 -0.1887 0.8105
vn -0.5545 0.1887 0.8105
vn 0.5000 -0.5000 0.7071
vn 0.1887 -0.5545 0.8105
vn -0.1887 -0.5545 0.8105
vn 0.5545 -0.1887 0.8105
vn 0.2142 -0.2142 0.9530
vn -0.2142 -0.2142 0.9530
vn 0.5545 0.1887 0.8105
vn 0.2142 0.2142 0.9530
vn -0.2142 0.2142 0.9530
vn 0.5000 0.5000 0.7071
vn 0.1887 0.5545 0.8105
vn -0.1887 0.5545 0.8105
vn 0.7071 -0.5000 0.5000
vn 0.8105 -0.1887 0.5545
vn 0.8105 0.1887 0.5545
vn 0.7071 -0.5000 -0.5000
vn 0.8105 -0.5545 -0.1887
vn 0.8105 -0.5545 0.1887
vn 0.8105 -0.1887 -0.5545
vn 0.9530 -0.2142 -0.2142
vn 0.9530 -0.2142 0.2142
vn 0.8105 0.1887 -0.5545
vn 0.9530 0.2142 -0.2142
vn 0.9530 0.2142 0.2142
vn 0.7071 0.5000 -0.5000
vn 0.8105 0.5545 -0.1887
vn 0.8105 0.5545 0.1887
vn 0.5000 -0.5000 -0.7071
vn 0.5545 -0.1887 -0.8105
vn 0.5545 0.1887 -0.8105
vn -0.5000 -0.5000 -0.7071
vn -0.1887 -0.5545 -0.8105
vn 0.1887 -0.5545 -0.8105
vn -0.5545 -0.1887 -0.8105
vn -0.2142 -0.2142 -0.9530
vn 0.2142 -0.2142 -0.9530
vn -0.5545 0.1887 -0.8105
vn -0.2142 0.2142 -0.9530
vn 0.2142 0.2142 -0.9530
vn -0.5000 0.5000 -0.7071
vn -0.1887 0.5545 -0.8105
vn 0.1887 0.5545 -0.8105
vn -0.7071 -0.5000 -0.5000
vn -0.8105 -0.1887 -0.5545
vn -0.8105 0.1887 -0.5545
vn -0.7071 -0.5000 0.5000
vn -0.8105 -0.5545 0.1887
vn -0.8105 -0.5545 -0.1887
vn -0.8105 -0.1887 0.5545
vn -0.9530 -0.2142 0.2142
vn -0.9530 -0.2142 -0.2142
vn -0.8105 0.1887 0.5545
vn -0.9530 0.2142 0.2142
vn -0.9530 0.2142 -0.2142
vn -0.7071 0.5000 0.5000
vn -0.8105 0.5545 0.1887
vn -0.8105 0.5545 -0.1887
vt 0.562500 0.187500
vt 0.625000 0.187500
vt 0.625000 0.250000
vt 0.562500 0.250000
vt 0.562500 0.437500
vt 0.625000 0.437500
vt 0.625000 0.500000
vt 0.562500 0.500000
vt 0.562500 0.687500
vt 0.625000 0.687500
vt 0.625000 0.750000
vt 0.562500 0.750000
vt 0.562500 0.937500
vt 0.625000 0.937500
vt 0.625000 1.000000
vt 0.562500 1.000000
vt 0.312500 0.687500
vt 0.375000 0.687500
vt 0.375000 0.750000
vt 0.312500 0.750000
vt 0.812500 0.687500
vt 0.875000 0.687500
vt 0.875000 0.750000
vt 0.812500 0.750000
vt 0.687500 0.687500
vt 0.687500 0.750000
vt 0.750000 0.687500
vt 0.750000 0.750000
vt 0.687500 0.500000
vt 0.687500 0.562500
vt 0.625000 0.562500
vt 0.687500 0.625000
vt 0.625000 0.625000
vt 0.750000 0.500000
vt 0.750000 0.562500
vt 0.750000 0.625000
vt 0.812500 0.500000
vt 0.812500 0.562500
vt 0.812500 0.625000
vt 0.875000 0.500000
vt 0.875000 0.562500
vt 0.875000 0.625000
vt 0.125000 0.687500
vt 0.187500 0.687500
vt 0.187500 0.750000
vt 0.125000 0.750000
vt 0.250000 0.687500
vt 0.250000 0.750000
vt 0.125000 0.500000
vt 0.187500 0.500000
vt 0.187500 0.562500
vt 0.125000 0.562500
vt 0.187500 0.625000
vt 0.125000 0.625000
vt 0.250000 0.500000
vt 0.250000 0.562500
vt 0.250000 0.625000
vt 0.312500 0.500000
vt 0.312500 0.562500
vt 0.312500 0.625000
vt 0.375000 0.500000
vt 0.375000 0.562500
vt 0.375000 0.625000
vt 0.375000 0.937500
vt 0.437500 0.937500
vt 0.437500 1.000000
vt 0.375000 1.000000
vt 0.500000 0.937500
vt 0.500000 1.000000
vt 0.437500 0.750000
vt 0.437500 0.812500
vt 0.375000 0.812500
vt 0.437500 0.875000
vt 0.375000 0.875000
vt 0.500000 0.750000
vt 0.500000 0.812500
vt 0.500000 0.875000
vt 0.562500 0.812500
vt 0.562500 0.875000
vt 0.625000 0.812500
vt 0.625000 0.875000
vt 0.437500 0.687500
vt 0.500000 0.687500
vt 0.437500 0.500000
vt 0.437500 0.562500
vt 0.437500 0.625000
vt 0.500000 0.500000
vt 0.500000 0.562500
vt 0.500000 0.625000
vt 0.562500 0.562500
vt 0.562500 0.625000
vt 0.375000 0.437500
vt 0.437500 0.437500
vt 0.500000 0.437500
vt 0.375000 0.250000
vt 0.437500 0.250000
vt 0.437500 0.312500
vt 0.375000 0.312500
vt 0.437500 0.375000
vt 0.375000 0.375000
vt 0.500000 0.250000
vt 0.500000 0.312500
vt 0.500000 0.375000
vt 0.562500 0.312500
vt 0.562500 0.375000
vt 0.625000 0.312500
vt 0.625000 0.375000
vt 0.375000 0.187500
vt 0.437500 0.187500
vt 0.500000 0.187500
vt 0.375000 0.000000
vt 0.437500 0.000000
vt 0.437500 0.062500
vt 0.375000 0.062500
vt 0.437500 0.125000
vt 0.375000 0.125000
vt 0.500000 0.000000
vt 0.500000 0.062500
vt 0.500000 0.125000
vt 0.562500 0.000000
vt 0.562500 0.062500
vt 0.562500 0.125000
vt 0.625000 0.000000
vt 0.625000 0.062500
vt 0.625000 0.125000
s 0
f 162/2/35 81/3/35 68/4/35 82/5/35
f 153/6/36 90/7/36 72/8/36 91/9/36
f 144/10/37 99/11/37 70/12/37 100/13/37
f 135/14/38 108/15/38 66/16/38 78/17/38
f 126/18/39 94/19/39 69/20/39 105/21/39
f 117/22/40 79/23/40 66/24/40 108/25/40
f 99/11/41 111/26/41 106/27/41 70/12/41
f 111/26/42 114/28/42 107/29/42 106/27/42
f 114/28/43 117/22/43 108/25/43 107/29/43
f 72/8/44 90/30/44 109/31/44 97/32/44
f 97/32/45 109/31/45 110/33/45 98/34/45
f 98/34/46 110/33/46 111/26/46 99/11/46
f 90/30/47 89/35/47 112/36/47 109/31/47
f 109/31/48 112/36/48 113/37/48 110/33/48
f 110/33/49 113/37/49 114/28/49 111/26/49
f 89/35/50 88/38/50 115/39/50 112/36/50
f 112/36/51 115/39/51 116/40/51 113/37/51
f 113/37/52 116/40/52 117/22/52 114/28/52
f 88/38/53 68/41/53 81/42/53 115/39/53
f 115/39/54 81/42/54 80/43/54 116/40/54
f 116/40/55 80/43/55 79/23/55 117/22/55
f 75/44/56 120/45/56 103/46/56 65/47/56
f 120/45/57 123/48/57 104/49/57 103/46/57
f 123/48/58 126/18/58 105/21/58 104/49/58
f 67/50/59 87/51/59 118/52/59 73/53/59
f 73/53/60 118/52/60 119/54/60 74/55/60
f 74/55/61 119/54/61 120/45/61 75/44/61
f 87/51/62 86/56/62 121/57/62 118/52/62
f 118/52/63 121/57/63 122/58/63 119/54/63
f 119/54/64 122/58/64 123/48/64 120/45/64
f 86/56/65 85/59/65 124/60/65 121/57/65
f 121/57/66 124/60/66 125/61/66 122/58/66
f 122/58/67 125/61/67 126/18/67 123/48/67
f 85/59/68 71/62/68 96/63/68 124/60/68
f 124/60/69 96/63/69 95/64/69 125/61/69
f 125/61/70 95/64/70 94/19/70 126/18/70
f 103/65/71 129/66/71 76/67/71 65/68/71
f 129/66/72 132/69/72 77/70/72 76/67/72
f 132/69/73 135/14/73 78/17/73 77/70/73
f 69/20/74 102/71/74 127/72/74 105/73/74
f 105/73/75 127/72/75 128/74/75 104/75/75
f 104/75/76 128/74/76 129/66/76 103/65/76
f 102/71/77 101/76/77 130/77/77 127/72/77
f 127/72/78 130/77/78 131/78/78 128/74/78
f 128/74/79 131/78/79 132/69/79 129/66/79
f 101/76/80 100/13/80 133/79/80 130/77/80
f 130/77/81 133/79/81 134/80/81 131/78/81
f 131/78/82 134/80/82 135/14/82 132/69/82
f 100/13/83 70/12/83 106/81/83 133/79/83
f 133/79/84 106/81/84 107/82/84 134/80/84
f 134/80/85 107/82/85 108/15/85 135/14/85
f 94/19/86 138/83/86 102/71/86 69/20/86
f 138/83/87 141/84/87 101/76/87 102/71/87
f 141/84/88 144/10/88 100/13/88 101/76/88
f 71/62/89 93/85/89 136/86/89 96/63/89
f 96/63/90 136/86/90 137/87/90 95/64/90
f 95/64/91 137/87/91 138/83/91 94/19/91
f 93/85/92 92/88/92 139/89/92 136/86/92
f 136/86/93 139/89/93 140/90/93 137/87/93
f 137/87/94 140/90/94 141/84/94 138/83/94
f 92/88/95 91/9/95 142/91/95 139/89/95
f 139/89/96 142/91/96 143/92/96 140/90/96
f 140/90/97 143/92/97 144/10/97 141/84/97
f 91/9/98 72/8/98 97/32/98 142/91/98
f 142/91/99 97/32/99 98/34/99 143/92/99
f 143/92/100 98/34/100 99/11/100 144/10/100
f 85/93/101 147/94/101 93/85/101 71/62/101
f 147/94/102 150/95/102 92/88/102 93/85/102
f 150/95/103 153/6/103 91/9/103 92/88/103
f 67/96/104 84/97/104 145/98/104 87/99/104
f 87/99/105 145/98/105 146/100/105 86/101/105
f 86/101/106 146/100/106 147/94/106 85/93/106
f 84/97/107 83/102/107 148/103/107 145/98/107
f 145/98/108 148/103/108 149/104/108 146/100/108
f 146/100/109 149/104/109 150/95/109 147/94/109
f 83/102/110 82/5/110 151/105/110 148/103/110
f 148/103/111 151/105/111 152/106/111 149/104/111
f 149/104/112 152/106/112 153/6/112 150/95/112
f 82/5/113 68/4/113 88/107/113 151/105/113
f 151/105/114 88/107/114 89/108/114 152/106/114
f 152/106/115 89/108/115 90/7/115 153/6/115
f 73/109/116 156/110/116 84/97/116 67/96/116
f 156/110/117 159/111/117 83/102/117 84/97/117
f 159/111/118 162/2/118 82/5/118 83/102/118
f 65/112/119 76/113/119 154/114/119 75/115/119
f 75/115/120 154/114/120 155/116/120 74/117/120
f 74/117/121 155/116/121 156/110/121 73/109/121
f 76/113/122 77/118/122 157/119/122 154/114/122
f 154/114/123 157/119/123 158/120/123 155/116/123
f 155/116/124 158/120/124 159/111/124 156/110/124
f 77/118/125 78/121/125 160/122/125 157/119/125
f 157/119/126 160/122/126 161/123/126 158/120/126
f 158/120/127 161/123/127 162/2/127 159/111/127
f 78/121/128 66/124/128 79/125/128 160/122/128
f 160/122/129 79/125/129 80/126/129 161/123/129
f 161/123/130 80/126/130 81/3/130 162/2/130
